<svg id="visual" viewBox="0 0 900 600" width="900" height="600" xmlns="http://www.w3.org/2000/svg" xmlns:xlink="http://www.w3.org/1999/xlink" version="1.1"><path d="M0 67L13.7 64C27.3 61 54.7 55 82 53C109.3 51 136.7 53 163.8 59C191 65 218 75 245.2 80C272.3 85 299.7 85 327 77C354.3 69 381.7 53 409 54C436.3 55 463.7 73 491 81C518.3 89 545.7 87 573 80C600.3 73 627.7 61 654.8 59C682 57 709 65 736.2 66C763.3 67 790.7 61 818 61C845.3 61 872.7 67 886.3 70L900 73L900 0L886.3 0C872.7 0 845.3 0 818 0C790.7 0 763.3 0 736.2 0C709 0 682 0 654.8 0C627.7 0 600.3 0 573 0C545.7 0 518.3 0 491 0C463.7 0 436.3 0 409 0C381.7 0 354.3 0 327 0C299.7 0 272.3 0 245.2 0C218 0 191 0 163.8 0C136.7 0 109.3 0 82 0C54.7 0 27.3 0 13.7 0L0 0Z" fill="#2fad8f"></path><path d="M0 313L13.7 285C27.3 257 54.7 201 82 205C109.3 209 136.7 273 163.8 286C191 299 218 261 245.2 254C272.3 247 299.7 271 327 263C354.3 255 381.7 215 409 200C436.3 185 463.7 195 491 216C518.3 237 545.7 269 573 267C600.3 265 627.7 229 654.8 211C682 193 709 193 736.2 186C763.3 179 790.7 165 818 184C845.3 203 872.7 255 886.3 281L900 307L900 71L886.3 68C872.7 65 845.3 59 818 59C790.7 59 763.3 65 736.2 64C709 63 682 55 654.8 57C627.7 59 600.3 71 573 78C545.7 85 518.3 87 491 79C463.7 71 436.3 53 409 52C381.7 51 354.3 67 327 75C299.7 83 272.3 83 245.2 78C218 73 191 63 163.8 57C136.7 51 109.3 49 82 51C54.7 53 27.3 59 13.7 62L0 65Z" fill="#1c9a7c"></path><path d="M0 415L13.7 406C27.3 397 54.7 379 82 382C109.3 385 136.7 409 163.8 426C191 443 218 453 245.2 455C272.3 457 299.7 451 327 430C354.3 409 381.7 373 409 376C436.3 379 463.7 421 491 428C518.3 435 545.7 407 573 408C600.3 409 627.7 439 654.8 449C682 459 709 449 736.2 432C763.3 415 790.7 391 818 390C845.3 389 872.7 411 886.3 422L900 433L900 305L886.3 279C872.7 253 845.3 201 818 182C790.7 163 763.3 177 736.2 184C709 191 682 191 654.8 209C627.7 227 600.3 263 573 265C545.7 267 518.3 235 491 214C463.7 193 436.3 183 409 198C381.7 213 354.3 253 327 261C299.7 269 272.3 245 245.2 252C218 259 191 297 163.8 284C136.7 271 109.3 207 82 203C54.7 199 27.3 255 13.7 283L0 311Z" fill="#00876a"></path><path d="M0 487L13.7 492C27.3 497 54.7 507 82 506C109.3 505 136.7 493 163.8 499C191 505 218 529 245.2 540C272.3 551 299.7 549 327 540C354.3 531 381.7 515 409 514C436.3 513 463.7 527 491 526C518.3 525 545.7 509 573 507C600.3 505 627.7 517 654.8 525C682 533 709 537 736.2 536C763.3 535 790.7 529 818 524C845.3 519 872.7 515 886.3 513L900 511L900 431L886.3 420C872.7 409 845.3 387 818 388C790.7 389 763.3 413 736.2 430C709 447 682 457 654.8 447C627.7 437 600.3 407 573 406C545.7 405 518.3 433 491 426C463.7 419 436.3 377 409 374C381.7 371 354.3 407 327 428C299.7 449 272.3 455 245.2 453C218 451 191 441 163.8 424C136.7 407 109.3 383 82 380C54.7 377 27.3 395 13.7 404L0 413Z" fill="#00755c"></path><path d="M0 601L13.7 601C27.3 601 54.7 601 82 601C109.3 601 136.7 601 163.8 601C191 601 218 601 245.2 601C272.3 601 299.7 601 327 601C354.3 601 381.7 601 409 601C436.3 601 463.7 601 491 601C518.3 601 545.7 601 573 601C600.3 601 627.7 601 654.8 601C682 601 709 601 736.2 601C763.3 601 790.7 601 818 601C845.3 601 872.7 601 886.3 601L900 601L900 509L886.3 511C872.7 513 845.3 517 818 522C790.7 527 763.3 533 736.2 534C709 535 682 531 654.8 523C627.7 515 600.3 503 573 505C545.7 507 518.3 523 491 524C463.7 525 436.3 511 409 512C381.7 513 354.3 529 327 538C299.7 547 272.3 549 245.2 538C218 527 191 503 163.8 497C136.7 491 109.3 503 82 504C54.7 505 27.3 495 13.7 490L0 485Z" fill="#00634f"></path></svg>