<svg id="visual" viewBox="0 0 900 600" width="900" height="600" xmlns="http://www.w3.org/2000/svg" xmlns:xlink="http://www.w3.org/1999/xlink" version="1.1"><path d="M0 61L13.7 61C27.3 61 54.7 61 82 60C109.3 59 136.7 57 163.8 61C191 65 218 75 245.2 75C272.3 75 299.7 65 327 63C354.3 61 381.7 67 409 71C436.3 75 463.7 77 491 82C518.3 87 545.7 95 573 97C600.3 99 627.7 95 654.8 87C682 79 709 67 736.2 58C763.3 49 790.7 43 818 41C845.3 39 872.7 41 886.3 42L900 43L900 0L886.3 0C872.7 0 845.3 0 818 0C790.7 0 763.3 0 736.2 0C709 0 682 0 654.8 0C627.7 0 600.3 0 573 0C545.7 0 518.3 0 491 0C463.7 0 436.3 0 409 0C381.7 0 354.3 0 327 0C299.7 0 272.3 0 245.2 0C218 0 191 0 163.8 0C136.7 0 109.3 0 82 0C54.7 0 27.3 0 13.7 0L0 0Z" fill="#4c516d"></path><path d="M0 175L13.7 165C27.3 155 54.7 135 82 125C109.3 115 136.7 115 163.8 130C191 145 218 175 245.2 172C272.3 169 299.7 133 327 124C354.3 115 381.7 133 409 147C436.3 161 463.7 171 491 178C518.3 185 545.7 189 573 194C600.3 199 627.7 205 654.8 192C682 179 709 147 736.2 134C763.3 121 790.7 127 818 134C845.3 141 872.7 149 886.3 153L900 157L900 41L886.3 40C872.7 39 845.3 37 818 39C790.7 41 763.3 47 736.2 56C709 65 682 77 654.8 85C627.7 93 600.3 97 573 95C545.7 93 518.3 85 491 80C463.7 75 436.3 73 409 69C381.7 65 354.3 59 327 61C299.7 63 272.3 73 245.2 73C218 73 191 63 163.8 59C136.7 55 109.3 57 82 58C54.7 59 27.3 59 13.7 59L0 59Z" fill="#91bcb4"></path><path d="M0 265L13.7 281C27.3 297 54.7 329 82 334C109.3 339 136.7 317 163.8 311C191 305 218 315 245.2 299C272.3 283 299.7 241 327 243C354.3 245 381.7 291 409 314C436.3 337 463.7 337 491 327C518.3 317 545.7 297 573 300C600.3 303 627.7 329 654.8 329C682 329 709 303 736.2 298C763.3 293 790.7 309 818 329C845.3 349 872.7 373 886.3 385L900 397L900 155L886.3 151C872.7 147 845.3 139 818 132C790.7 125 763.3 119 736.2 132C709 145 682 177 654.8 190C627.7 203 600.3 197 573 192C545.7 187 518.3 183 491 176C463.7 169 436.3 159 409 145C381.7 131 354.3 113 327 122C299.7 131 272.3 167 245.2 170C218 173 191 143 163.8 128C136.7 113 109.3 113 82 123C54.7 133 27.3 153 13.7 163L0 173Z" fill="#f0f7da"></path><path d="M0 409L13.7 419C27.3 429 54.7 449 82 441C109.3 433 136.7 397 163.8 390C191 383 218 405 245.2 403C272.3 401 299.7 375 327 369C354.3 363 381.7 377 409 386C436.3 395 463.7 399 491 394C518.3 389 545.7 375 573 388C600.3 401 627.7 441 654.8 441C682 441 709 401 736.2 400C763.3 399 790.7 437 818 454C845.3 471 872.7 467 886.3 465L900 463L900 395L886.3 383C872.7 371 845.3 347 818 327C790.7 307 763.3 291 736.2 296C709 301 682 327 654.8 327C627.7 327 600.3 301 573 298C545.7 295 518.3 315 491 325C463.7 335 436.3 335 409 312C381.7 289 354.3 243 327 241C299.7 239 272.3 281 245.2 297C218 313 191 303 163.8 309C136.7 315 109.3 337 82 332C54.7 327 27.3 295 13.7 279L0 263Z" fill="#91bcb4"></path><path d="M0 601L13.7 601C27.3 601 54.7 601 82 601C109.3 601 136.7 601 163.8 601C191 601 218 601 245.2 601C272.3 601 299.7 601 327 601C354.3 601 381.7 601 409 601C436.3 601 463.7 601 491 601C518.3 601 545.7 601 573 601C600.3 601 627.7 601 654.8 601C682 601 709 601 736.2 601C763.3 601 790.7 601 818 601C845.3 601 872.7 601 886.3 601L900 601L900 461L886.3 463C872.7 465 845.3 469 818 452C790.7 435 763.3 397 736.2 398C709 399 682 439 654.8 439C627.7 439 600.3 399 573 386C545.7 373 518.3 387 491 392C463.7 397 436.3 393 409 384C381.7 375 354.3 361 327 367C299.7 373 272.3 399 245.2 401C218 403 191 381 163.8 388C136.7 395 109.3 431 82 439C54.7 447 27.3 427 13.7 417L0 407Z" fill="#4c516d"></path></svg>