<svg id="visual" viewBox="0 0 900 600" width="900" height="600" xmlns="http://www.w3.org/2000/svg" xmlns:xlink="http://www.w3.org/1999/xlink" version="1.1"><path d="M0 55L13.7 61C27.3 67 54.7 79 82 90C109.3 101 136.7 111 163.8 109C191 107 218 93 245.2 84C272.3 75 299.7 71 327 75C354.3 79 381.7 91 409 90C436.3 89 463.7 75 491 65C518.3 55 545.7 49 573 47C600.3 45 627.7 47 654.8 54C682 61 709 73 736.2 86C763.3 99 790.7 113 818 116C845.3 119 872.7 111 886.3 107L900 103L900 0L886.3 0C872.7 0 845.3 0 818 0C790.7 0 763.3 0 736.2 0C709 0 682 0 654.8 0C627.7 0 600.3 0 573 0C545.7 0 518.3 0 491 0C463.7 0 436.3 0 409 0C381.7 0 354.3 0 327 0C299.7 0 272.3 0 245.2 0C218 0 191 0 163.8 0C136.7 0 109.3 0 82 0C54.7 0 27.3 0 13.7 0L0 0Z" fill="#4c516d"></path><path d="M0 121L13.7 138C27.3 155 54.7 189 82 203C109.3 217 136.7 211 163.8 206C191 201 218 197 245.2 204C272.3 211 299.7 229 327 231C354.3 233 381.7 219 409 197C436.3 175 463.7 145 491 145C518.3 145 545.7 175 573 175C600.3 175 627.7 145 654.8 134C682 123 709 131 736.2 154C763.3 177 790.7 215 818 221C845.3 227 872.7 201 886.3 188L900 175L900 101L886.3 105C872.7 109 845.3 117 818 114C790.7 111 763.3 97 736.2 84C709 71 682 59 654.8 52C627.7 45 600.3 43 573 45C545.7 47 518.3 53 491 63C463.7 73 436.3 87 409 88C381.7 89 354.3 77 327 73C299.7 69 272.3 73 245.2 82C218 91 191 105 163.8 107C136.7 109 109.3 99 82 88C54.7 77 27.3 65 13.7 59L0 53Z" fill="#91bcb4"></path><path d="M0 205L13.7 216C27.3 227 54.7 249 82 256C109.3 263 136.7 255 163.8 254C191 253 218 259 245.2 265C272.3 271 299.7 277 327 273C354.3 269 381.7 255 409 239C436.3 223 463.7 205 491 213C518.3 221 545.7 255 573 259C600.3 263 627.7 237 654.8 222C682 207 709 203 736.2 221C763.3 239 790.7 279 818 290C845.3 301 872.7 283 886.3 274L900 265L900 173L886.3 186C872.7 199 845.3 225 818 219C790.7 213 763.3 175 736.2 152C709 129 682 121 654.8 132C627.7 143 600.3 173 573 173C545.7 173 518.3 143 491 143C463.7 143 436.3 173 409 195C381.7 217 354.3 231 327 229C299.7 227 272.3 209 245.2 202C218 195 191 199 163.8 204C136.7 209 109.3 215 82 201C54.7 187 27.3 153 13.7 136L0 119Z" fill="#f0f7da"></path><path d="M0 463L13.7 473C27.3 483 54.7 503 82 512C109.3 521 136.7 519 163.8 502C191 485 218 453 245.2 439C272.3 425 299.7 429 327 428C354.3 427 381.7 421 409 415C436.3 409 463.7 403 491 399C518.3 395 545.7 393 573 384C600.3 375 627.7 359 654.8 358C682 357 709 371 736.2 399C763.3 427 790.7 469 818 475C845.3 481 872.7 451 886.3 436L900 421L900 263L886.3 272C872.7 281 845.3 299 818 288C790.7 277 763.3 237 736.2 219C709 201 682 205 654.8 220C627.7 235 600.3 261 573 257C545.7 253 518.3 219 491 211C463.7 203 436.3 221 409 237C381.7 253 354.3 267 327 271C299.7 275 272.3 269 245.2 263C218 257 191 251 163.8 252C136.7 253 109.3 261 82 254C54.7 247 27.3 225 13.7 214L0 203Z" fill="#91bcb4"></path><path d="M0 601L13.7 601C27.3 601 54.7 601 82 601C109.3 601 136.7 601 163.8 601C191 601 218 601 245.2 601C272.3 601 299.7 601 327 601C354.3 601 381.7 601 409 601C436.3 601 463.7 601 491 601C518.3 601 545.7 601 573 601C600.3 601 627.7 601 654.8 601C682 601 709 601 736.2 601C763.3 601 790.7 601 818 601C845.3 601 872.7 601 886.3 601L900 601L900 419L886.3 434C872.7 449 845.3 479 818 473C790.7 467 763.3 425 736.2 397C709 369 682 355 654.8 356C627.7 357 600.3 373 573 382C545.7 391 518.3 393 491 397C463.7 401 436.3 407 409 413C381.7 419 354.3 425 327 426C299.7 427 272.3 423 245.2 437C218 451 191 483 163.8 500C136.7 517 109.3 519 82 510C54.7 501 27.3 481 13.7 471L0 461Z" fill="#4c516d"></path></svg>